# xmcd
#
# Track frame offsets:
#	150
#	11147
#	23482
#	35933
#	50048
#	65381
#	81320
#	91032
#	106756
#	125123
#	140262
#	152557
#	165843
#	186712
#	199612
#	209756
#	232328
#	250099
#	263032
#	270964
#	297449
#
# Disc length: 4121 seconds
#
# Revision: 1
# Processed by: cddbd v1.5.2PL0 Copyright (c) Steve Scherf et al.
# Submitted via: audiograbber 1.83.01
#
DISCID=30101715
DTITLE=The Pisshead Blues Band - The Pisshead Blues Band
DYEAR=2004
DGENRE=Blues
TTITLE0=The Rock
TTITLE1=Just Ain't Right
TTITLE2=Oh Yeah
TTITLE3=God Hates Me
TTITLE4=Time to Waste
TTITLE5=Near Suicide
TTITLE6=Detox
TTITLE7=Fine Day
TTITLE8=The 7th Floor
TTITLE9=I'm So Lost
TTITLE10=I Never Grew Up
TTITLE11=Searchin'
TTITLE12=Cold November
TTITLE13=Drunk Again
TTITLE14=Go Fast
TTITLE15=Pisshead Blues
TTITLE16=The Rain
TTITLE17=Bowls Half Full
TTITLE18=I'm Drunk and So Are You
TTITLE19=No Doves Fly Here...
TTITLE20=Good Bye
EXTD=
EXTT0=
EXTT1=
EXTT2=
EXTT3=
EXTT4=
EXTT5=
EXTT6=
EXTT7=
EXTT8=
EXTT9=
EXTT10=
EXTT11=
EXTT12=
EXTT13=
EXTT14=
EXTT15=
EXTT16=
EXTT17=
EXTT18=
EXTT19=
EXTT20=
PLAYORDER=
